<?xml version="1.0" encoding="utf-8"?>
<!-- Generator: Adobe Illustrator 25.0.0, SVG Export Plug-In . SVG Version: 6.00 Build 0)  -->
<svg version="1.2" baseProfile="tiny" id="Layer_1" xmlns="http://www.w3.org/2000/svg" xmlns:xlink="http://www.w3.org/1999/xlink"
	 x="0px" y="0px" viewBox="0 0 218.5241547 91.2459869" fill="#121212">
	<path d="M147.2126465,31.343399c1.5644073,2.0024986,3.2197113,4.7881012,3.2197113,8.7910995
	c0,9.660099-7.5713043,15.3163986-18.535202,15.3163986c-2.7871094,0-5.3115005-0.3471985-6.8763962-0.7817993l-2.8736038,4.6118011
	l8.5283966,0.5209999c15.0576019,0.9594994,23.9315948,1.3955002,23.9315948,12.9662971
	c0,10.0107956-8.7870941,15.6651001-23.9315948,15.6651001c-15.7514954,0-21.756897-4.0038986-21.756897-10.8778992
	c0-3.9179993,1.7411957-6.0019989,4.7866974-8.8785019c-2.8731003-1.2142944-3.8292007-3.3890991-3.8292007-5.7396965
	c0-1.9160004,0.9561005-3.6562996,2.5250015-5.3110008c1.566803-1.6518974,3.3066101-3.3076973,5.3950043-5.2216988
	c-4.2632065-2.0884018-7.4843979-6.6142998-7.4843979-13.0556984c0-10.0073013,6.6146927-16.8804016,19.9281998-16.8804016
	c3.7421875,0,6.006897,0.3448009,8.0088043,0.8702011h16.9716949v7.3954983L147.2126465,31.343399z M121.4518509,71.0323944
	c-1.1327972,1.3905945-2.2626953,2.8682022-2.2626953,4.6118011c0,3.4785004,4.4366074,4.5254059,10.5302963,4.5254059
	c5.0478973,0,11.9237976-0.3535004,11.9237976-5.0469055c0-2.7894974-3.3076019-2.9618988-7.4872894-3.2240982
	L121.4518509,71.0323944z M131.0241547,31.0806999c-4.7875977,0-8.3540039,2.3511009-8.3540039,8.0092888
	c0,4.2632103,2.3506088,7.2227097,8.0962067,7.2227097c4.8701019,0,8.1786957-2.8695984,8.1786957-7.3988991
	C138.9450531,33.780899,135.9850464,31.0806999,131.0241547,31.0806999z"/>
	<path d="M159.3024597,67.8302994v-6.8721008l4.4403992-0.607399c1.2187958-0.1763,1.3916931-0.4356003,1.3916931-1.7442017
	V33.0201988c0-0.9556007-0.2597961-1.5674-1.1329041-1.82621l-4.6991882-1.6551895l0.9570923-7.0468998h18.0166016v36.1147003
	c0,1.3950005,0.0848999,1.5679016,1.3934937,1.7442017l4.4385071,0.607399v6.8721008H159.3024597z M170.5319519,15.5289879
	c-4.9618988,0-7.8329926-2.8744879-7.8329926-7.8368883c0-4.9565997,2.8710938-7.6562996,7.8329926-7.6562996
	c5.0478973,0,7.9199066,2.6996999,7.9199066,7.6562996C178.4518585,12.6545,175.5798492,15.5289879,170.5319519,15.5289879z"/>
	<path d="M218.5241547,64.4561996c-3.7432098,1.8256989-9.2256012,3.4794998-14.1885071,3.4794998
	c-10.3563995,0-14.2714996-4.1733017-14.2714996-14.0121994V31.1231995c0-0.5209999,0-0.8705997-0.6981964-0.8705997h-6.0917969
	v-7.7456112c7.6611023-0.8724899,10.7050934-4.702589,11.6620941-14.188489h8.269516v12.3622999
	c0,0.6070004,0,0.8701878,0.6972809,0.8701878h12.2695007v8.7016125h-12.9667816v20.7988987
	c0,5.1352005,1.2197876,7.1352005,5.9169922,7.1352005c2.4394989,0,4.9609985-0.607399,7.0497894-1.3911018L218.5241547,64.4561996z
	"/>
	<g>
		<path d="M89.5729523,41.6173973L49.7795563,1.8263999c-2.2901001-2.2919998-6.0069008-2.2919998-8.2997932,0l-8.2627068,8.263588
		l10.4813995,10.4820013c2.4365005-0.8227901,5.2294998-0.2710018,7.1708984,1.6709099
		c1.9517021,1.9535999,2.4995003,4.7705002,1.6562996,7.2152996L62.627655,39.5601997
		c2.444397-0.8422127,5.2641983-0.297802,7.2157974,1.657299c2.7285995,2.7274895,2.7285995,7.1473999,0,9.8759003
		c-2.7289963,2.7294998-7.1488953,2.7294998-9.8788986,0c-2.0516968-2.0531998-2.5590973-5.0672989-1.5199966-7.5951996
		l-9.421402-9.4217987L49.0221558,58.869297c0.6656075,0.3291016,1.2929993,0.7686005,1.8471985,1.3208008
		c2.7280006,2.7271004,2.7280006,7.1465034,0,9.8780022c-2.7284966,2.7275009-7.1503983,2.7275009-9.8759995,0
		c-2.7280006-2.7314987-2.7280006-7.1509018,0-9.8780022c0.674408-0.6732979,1.4541016-1.1825981,2.2867012-1.5238991V33.6431999
		c-0.8325996-0.3403015-1.6114006-0.8460999-2.2867012-1.5238991c-2.0663986-2.0649014-2.5639-5.0976009-1.5043983-7.6352024
		L29.156456,14.1496L1.871357,41.4333c-2.2925,2.2938995-2.2925,6.0106888,0,8.3026886l39.7934036,39.7909966
		c2.2910004,2.2919998,6.006897,2.2919998,8.3007965,0l39.6073952-39.6063881
		C91.8649521,47.6275978,91.8649521,43.9093971,89.5729523,41.6173973z"/>
	</g>
</svg>